<svg width="800" height="800" viewBox="0 0 800 800" fill="none" xmlns="http://www.w3.org/2000/svg">
<path d="M521.756 140.278L556.822 197.889V608.644H465.744L468.944 230.656L521.756 140.278ZM279.778 143.056L241.722 196.444V607.189L334.033 603.122L329.256 233.556L279.778 143.056Z" fill="#D0CFCE"/>
<path d="M314.611 638.2C314.611 638.2 328.611 283.778 325.833 194.9C323.167 110.144 399.611 67.5111 399.611 67.5111C399.611 67.5111 476.056 110.144 473.389 194.9C470.611 283.778 484.611 638.2 484.611 638.2H314.611Z" fill="#2563EB"/>
<path d="M439 665.222L617.867 651.3C619.933 616.033 581.556 573.989 581.556 573.989C489.889 508.022 475.078 469.322 475.078 469.322L437.111 367.3M360.333 664.9L182.133 651.3C180.078 616.033 218.444 573.989 218.444 573.989C310.111 508.022 324.922 469.322 324.922 469.322L362.889 367.3" fill="white"/>
<path d="M444.778 730.867C444.667 731.611 444.667 732.022 444.667 732.022H354.556C354.556 732.022 354.556 731.611 354.444 730.767C353.889 723.267 351.444 684.322 360.333 664.9C360.111 590.178 359.667 342.678 366 287.044C373.333 221.289 399.556 211.578 399.556 211.578C399.556 211.578 425.889 221.289 433.333 287.044C439.556 342.778 439.222 590.811 439 665.222C447.667 684.744 445.222 723.589 444.778 730.867Z" fill="white"/>
<path d="M504.778 191.778L530 146L556.778 197.889V555.333M241.667 556.556V196.444L268.556 144.556L293.778 190.333M478.778 476.222C475.333 370.444 471.778 243.333 473.333 194.889C476 110.111 399.556 67.5556 399.556 67.5556C399.556 67.5556 323.111 110.111 325.778 194.889C327.333 243.556 323.778 371.556 320.333 477.667C323.778 472.222 324.889 469.333 324.889 469.333L362.222 369.222V369.111C363 332.222 364.222 302.333 366 287C373.333 221.333 399.556 211.556 399.556 211.556C399.556 211.556 425.889 221.333 433.333 287C435 302.111 436.222 331.333 437.111 367.333C439.111 451.111 439.222 571.889 439 638.222" stroke="black" stroke-width="21.6556" stroke-miterlimit="10" stroke-linecap="round" stroke-linejoin="round"/>
<path d="M446.367 664.589L617.867 651.3C619.922 616.033 581.556 573.989 581.556 573.989C489.889 508.022 475.078 469.322 475.078 469.322L437.111 367.3M360.333 638.222C360.111 572.444 360.222 452.889 362.222 369.222M362.222 369.222L324.889 469.333C324.889 469.333 323.778 472.222 320.333 477.667V477.778C312.222 490.667 291.333 517.889 241.667 556.556C234.556 562.111 226.778 568 218.444 574C218.444 574 180.111 616 182.111 651.333L353.667 664.556M362.222 369.222V369.111L362.889 367.333" stroke="black" stroke-width="21.6556" stroke-miterlimit="10" stroke-linecap="round" stroke-linejoin="round"/>
<path d="M444.778 730.889C444.667 731.556 444.667 732 444.667 732H354.556C354.556 732 354.556 731.556 354.444 730.778C353.889 723.222 351.444 684.333 360.333 664.889V638.222C360.111 572.444 360.222 452.889 362.222 369.222V369.111C363 332.222 364.222 302.333 366 287C373.333 221.333 399.556 211.556 399.556 211.556C399.556 211.556 425.889 221.333 433.333 287C435 302.111 436.222 331.333 437.111 367.333C439.111 451.111 439.222 571.889 439 638.222V665.222C447.667 684.778 445.222 723.556 444.778 730.889Z" stroke="black" stroke-width="21.6556" stroke-miterlimit="10" stroke-linecap="round" stroke-linejoin="round"/>
</svg>
