<svg width="511" height="742" viewBox="0 0 511 742" fill="none" xmlns="http://www.w3.org/2000/svg">
<path d="M257.5 0.981242V1.37187C229.197 61.7375 187.086 114.434 136.116 162.211L195.053 156.058L114.827 257.67L153.592 245.316L101.055 331.058L126.883 346.437L24.9297 490.433L81.3281 490.727L0.568756 621.342L99.8844 608.645L118.634 658.792L222.444 619.289L204.719 741.75H287.434L277.228 635.161L336.897 660.795L352.814 622.072L422.006 654.837L510.141 622.416L452.228 522.269L432.795 518.703L443.389 545.562L455.645 576.664L424.492 564.508L344.952 533.402V589.262L322.833 575.834L214.434 510.209L180.692 543.412L152.52 571.147L155.888 531.741L159.208 493.217L187.627 495.655L202.03 481.448L210.139 473.489L219.855 479.348L315.753 537.405V490.677L335.675 498.442L403.984 525.148L396.028 504.983L386.408 480.52L412.241 485.255L483.284 498.294L429.331 437.45L392.417 459.377L381.967 465.577L373.959 456.398L351.647 430.716L351.988 432.617L323.228 437.648L313.9 384.034L304.916 332.373L339.291 371.975L388.022 428.03L456.627 387.358C418.08 356.822 394.897 334.436 379.036 311.086L380.306 330.861L383.384 379.298L354.088 340.627L300.228 269.631L265.463 342.777L243.831 388.284L237.827 338.234L232.358 293.167L258.189 290.092L284.164 235.452L294.467 213.772L308.967 232.866L348.03 284.328L346.858 266.312L345.442 244L366.489 251.712L402.078 264.75L361.258 209.819L274.003 164.702L260.038 196.292L244.95 230.569L232.887 195.119L221.219 160.939L247.734 151.908L253.544 138.723L259.794 124.466L273.613 131.642L350.761 171.533L376.491 162.842C308.647 109.233 275.506 55.2078 257.497 0.978119L257.5 0.981242Z" fill="#3B82F6"/>
</svg>
